<?xml version="1.0" encoding="utf-8"?>
<!-- Generator: Adobe Illustrator 22.0.0, SVG Export Plug-In . SVG Version: 6.00 Build 0)  -->
<svg version="1.1" id="Layer_1" xmlns="http://www.w3.org/2000/svg" xmlns:xlink="http://www.w3.org/1999/xlink" x="0px" y="0px"
	 viewBox="0 0 360 576" style="enable-background:new 0 0 360 576;" xml:space="preserve">
<style type="text/css">
	.st0{fill:#FFFFFF;}
	.st1{fill:none;stroke:#000000;stroke-miterlimit:10;}
	.st2{fill:#FFFFFF;stroke:#000000;stroke-miterlimit:10;}
</style>
<g>
	<path class="st0" d="M153.5,142c-5.5,0-10,4.5-10,10v63.5c0,5.5-4.1,10-9,10s-9-4.5-9-10V152c0-5.5-4.5-10-10-10h-16
		c-5.5,0-10,4.5-10,10v63.5c0,5.5-4.1,10-9,10s-9-4.5-9-10V152c0-5.5-4.5-10-10-10h-16c-5.5,0-10,4.5-10,10v63.5
		c0,5.5,0,11.1,0,12.4s0,6.9,0,12.4v11.2c0,5.5,4.5,10,10,10h34c5.5,0,10,4.5,10,10v268c0,5.5,4.5,10,10,10h16c5.5,0,10-4.5,10-10
		v-268c0-5.5,4.5-10,10-10h34c5.5,0,10-4.5,10-10v-11.2c0-5.5,0-11.1,0-12.4s0-6.9,0-12.4V152c0-5.5-4.5-10-10-10H153.5z"/>
	<path class="st1" d="M153.5,142c-5.5,0-10,4.5-10,10v63.5c0,5.5-4.1,10-9,10s-9-4.5-9-10V152c0-5.5-4.5-10-10-10h-16
		c-5.5,0-10,4.5-10,10v63.5c0,5.5-4.1,10-9,10s-9-4.5-9-10V152c0-5.5-4.5-10-10-10h-16c-5.5,0-10,4.5-10,10v63.5
		c0,5.5,0,11.1,0,12.4s0,6.9,0,12.4v11.2c0,5.5,4.5,10,10,10h34c5.5,0,10,4.5,10,10v268c0,5.5,4.5,10,10,10h16c5.5,0,10-4.5,10-10
		v-268c0-5.5,4.5-10,10-10h34c5.5,0,10-4.5,10-10v-11.2c0-5.5,0-11.1,0-12.4s0-6.9,0-12.4V152c0-5.5-4.5-10-10-10H153.5z"/>
</g>
<path class="st2" d="M273.5,33.5c0,0,33-11,33,20c0,124,0,496,0,496h-43v-248c0,0-56.3-67.8-53-160
	C213.5,58.5,273.5,33.5,273.5,33.5z"/>
</svg>
